<svg xmlns="http://www.w3.org/2000/svg" version="1.1" xmlns:xlink="http://www.w3.org/1999/xlink" xmlns:svgjs="http://svgjs.dev/svgjs" width="1440" height="560" preserveAspectRatio="none" viewBox="0 0 1440 560"><g mask="url(&quot;#SvgjsMask1004&quot;)" fill="none"><rect width="1440" height="560" x="0" y="0" fill="url(&quot;#SvgjsLinearGradient1005&quot;)"></rect><path d="M1181 340L828 -13" stroke-width="6" stroke="url(&quot;#SvgjsLinearGradient1006&quot;)" stroke-linecap="round" class="BottomRight"></path><path d="M615 524L325 234" stroke-width="6" stroke="url(&quot;#SvgjsLinearGradient1007&quot;)" stroke-linecap="round" class="TopLeft"></path><path d="M839 546L1010 717" stroke-width="10" stroke="url(&quot;#SvgjsLinearGradient1006&quot;)" stroke-linecap="round" class="BottomRight"></path><path d="M791 266L588 63" stroke-width="8" stroke="url(&quot;#SvgjsLinearGradient1007&quot;)" stroke-linecap="round" class="TopLeft"></path><path d="M954 113L620 -221" stroke-width="6" stroke="url(&quot;#SvgjsLinearGradient1007&quot;)" stroke-linecap="round" class="TopLeft"></path><path d="M961 42L700 -219" stroke-width="10" stroke="url(&quot;#SvgjsLinearGradient1007&quot;)" stroke-linecap="round" class="TopLeft"></path><path d="M1226 310L877 -39" stroke-width="6" stroke="url(&quot;#SvgjsLinearGradient1006&quot;)" stroke-linecap="round" class="BottomRight"></path><path d="M33 357L315 639" stroke-width="6" stroke="url(&quot;#SvgjsLinearGradient1007&quot;)" stroke-linecap="round" class="TopLeft"></path><path d="M1394 19L1234 -141" stroke-width="10" stroke="url(&quot;#SvgjsLinearGradient1007&quot;)" stroke-linecap="round" class="TopLeft"></path><path d="M858 415L1124 681" stroke-width="10" stroke="url(&quot;#SvgjsLinearGradient1007&quot;)" stroke-linecap="round" class="TopLeft"></path><path d="M947 180L792 25" stroke-width="6" stroke="url(&quot;#SvgjsLinearGradient1006&quot;)" stroke-linecap="round" class="BottomRight"></path><path d="M871 213L1256 598" stroke-width="6" stroke="url(&quot;#SvgjsLinearGradient1007&quot;)" stroke-linecap="round" class="TopLeft"></path><path d="M394 500L792 898" stroke-width="10" stroke="url(&quot;#SvgjsLinearGradient1006&quot;)" stroke-linecap="round" class="BottomRight"></path><path d="M727 234L1063 570" stroke-width="6" stroke="url(&quot;#SvgjsLinearGradient1007&quot;)" stroke-linecap="round" class="TopLeft"></path><path d="M162 453L543 834" stroke-width="10" stroke="url(&quot;#SvgjsLinearGradient1007&quot;)" stroke-linecap="round" class="TopLeft"></path><path d="M332 299L-44 -77" stroke-width="8" stroke="url(&quot;#SvgjsLinearGradient1007&quot;)" stroke-linecap="round" class="TopLeft"></path><path d="M153 270L-208 -91" stroke-width="6" stroke="url(&quot;#SvgjsLinearGradient1007&quot;)" stroke-linecap="round" class="TopLeft"></path><path d="M820 532L489 201" stroke-width="10" stroke="url(&quot;#SvgjsLinearGradient1006&quot;)" stroke-linecap="round" class="BottomRight"></path><path d="M12 356L313 657" stroke-width="8" stroke="url(&quot;#SvgjsLinearGradient1006&quot;)" stroke-linecap="round" class="BottomRight"></path><path d="M545 36L218 -291" stroke-width="8" stroke="url(&quot;#SvgjsLinearGradient1007&quot;)" stroke-linecap="round" class="TopLeft"></path><path d="M911 413L1317 819" stroke-width="10" stroke="url(&quot;#SvgjsLinearGradient1006&quot;)" stroke-linecap="round" class="BottomRight"></path><path d="M2 498L349 845" stroke-width="8" stroke="url(&quot;#SvgjsLinearGradient1007&quot;)" stroke-linecap="round" class="TopLeft"></path><path d="M1222 204L1020 2" stroke-width="8" stroke="url(&quot;#SvgjsLinearGradient1006&quot;)" stroke-linecap="round" class="BottomRight"></path><path d="M408 233L816 641" stroke-width="6" stroke="url(&quot;#SvgjsLinearGradient1007&quot;)" stroke-linecap="round" class="TopLeft"></path><path d="M1092 157L1482 547" stroke-width="8" stroke="url(&quot;#SvgjsLinearGradient1006&quot;)" stroke-linecap="round" class="BottomRight"></path><path d="M171 173L412 414" stroke-width="8" stroke="url(&quot;#SvgjsLinearGradient1006&quot;)" stroke-linecap="round" class="BottomRight"></path><path d="M928 290L582 -56" stroke-width="8" stroke="url(&quot;#SvgjsLinearGradient1006&quot;)" stroke-linecap="round" class="BottomRight"></path><path d="M696 421L468 193" stroke-width="8" stroke="url(&quot;#SvgjsLinearGradient1007&quot;)" stroke-linecap="round" class="TopLeft"></path><path d="M369 134L567 332" stroke-width="10" stroke="url(&quot;#SvgjsLinearGradient1006&quot;)" stroke-linecap="round" class="BottomRight"></path><path d="M1230 175L1034 -21" stroke-width="8" stroke="url(&quot;#SvgjsLinearGradient1006&quot;)" stroke-linecap="round" class="BottomRight"></path><path d="M1383 53L1124 -206" stroke-width="8" stroke="url(&quot;#SvgjsLinearGradient1007&quot;)" stroke-linecap="round" class="TopLeft"></path><path d="M1185 75L770 -340" stroke-width="6" stroke="url(&quot;#SvgjsLinearGradient1006&quot;)" stroke-linecap="round" class="BottomRight"></path><path d="M1313 443L1085 215" stroke-width="8" stroke="url(&quot;#SvgjsLinearGradient1007&quot;)" stroke-linecap="round" class="TopLeft"></path><path d="M540 116L782 358" stroke-width="10" stroke="url(&quot;#SvgjsLinearGradient1006&quot;)" stroke-linecap="round" class="BottomRight"></path><path d="M1305 204L1037 -64" stroke-width="8" stroke="url(&quot;#SvgjsLinearGradient1007&quot;)" stroke-linecap="round" class="TopLeft"></path><path d="M716 248L469 1" stroke-width="8" stroke="url(&quot;#SvgjsLinearGradient1006&quot;)" stroke-linecap="round" class="BottomRight"></path><path d="M309 357L532 580" stroke-width="10" stroke="url(&quot;#SvgjsLinearGradient1006&quot;)" stroke-linecap="round" class="BottomRight"></path><path d="M139 36L469 366" stroke-width="10" stroke="url(&quot;#SvgjsLinearGradient1007&quot;)" stroke-linecap="round" class="TopLeft"></path><path d="M195 148L508 461" stroke-width="10" stroke="url(&quot;#SvgjsLinearGradient1007&quot;)" stroke-linecap="round" class="TopLeft"></path></g><defs><mask id="SvgjsMask1004"><rect width="1440" height="560" fill="#ffffff"></rect></mask><linearGradient x1="15.28%" y1="139.29%" x2="84.72%" y2="-39.29%" gradientUnits="userSpaceOnUse" id="SvgjsLinearGradient1005"><stop stop-color="rgba(255, 255, 255, 0.71)" offset="0"></stop><stop stop-color="rgba(255, 255, 255, 1)" offset="1"></stop></linearGradient><linearGradient x1="0%" y1="0%" x2="100%" y2="100%" id="SvgjsLinearGradient1006"><stop stop-color="rgba(0, 0, 0, 0)" offset="0"></stop><stop stop-color="rgba(0, 0, 0, 1)" offset="1"></stop></linearGradient><linearGradient x1="100%" y1="100%" x2="0%" y2="0%" id="SvgjsLinearGradient1007"><stop stop-color="rgba(0, 0, 0, 0)" offset="0"></stop><stop stop-color="rgba(0, 0, 0, 1)" offset="1"></stop></linearGradient></defs></svg>